<!-- (c) Joonas Reinikka 2018 -->
<svg xmlns="http://www.w3.org/2000/svg" viewBox="0 0 800 600">
  <defs>
    <linearGradient id="lines" spreadMethod="repeat" x1="5%" y1="0%" x2="5%" y2="5%">
      <stop offset="50%" style="stop-color:#3a3a3a" />
      <stop offset="51%" style="stop-color:#ffffff" />
    </linearGradient>
    <linearGradient id="cassette" x1="0%" y1="100%" x2="100%" y2="0%" > 
      <stop offset="0%" style="stop-color:rgb(89, 89, 89);stop-opacity:1" />
      <stop offset="100%" style="stop-color:rgb(0,0,0);stop-opacity:1" />
    </linearGradient> 
  </defs>

  <rect x="50" y="0" width="720" height="450" rx="15" ry="15" fill="url(#cassette)" />
  <rect x="85" y="25" width="640" height="290" rx="15" ry="15" fill="#3a3a3a" />
  <rect x="90" y="30" width="630" height="280" rx="15" ry="15" fill="#ffffff" />
  <!-- lines -->
  <g fill="url(#lines)">
    <rect x="90" y="120" width="100" height="144" />
    <rect x="620" y="120" width="100" height="144" />
  </g>
  <!-- inner -->
  <rect x="190" y="120" width="430" height="140" fill="#3a3a3a" />
  <!-- cirlces -->
  <g fill="#1e1d1d">
    <circle cx="250" cy="180" r="45"/>
    <circle cx="560" cy="180" r="45"/>
  </g>
  <g fill="#ffffff" stroke="#e3e3e3" stroke-width="5">
    <circle cx="250" cy="180" r="35"/>
    <circle cx="560" cy="180" r="35"/>
  </g>
  <rect x="310" y="140" width="190" height="100" stroke="#1e1d1d" stroke-width="4" fill-opacity="0" rx="5" ry="5"/>
  <rect x="318" y="148" width="174" height="85" fill="#ffffff"/>
  
  <!--
  <g fill="#97C024" stroke="#97C024" stroke-linejoin="round" stroke-linecap="round">
    <path d="M0,0 L800,0 L800,600 L0,600 Z" stroke-width="12"/>
  </g>
  -->
</svg>
