<?xml version="1.0" standalone="no"?>
<!DOCTYPE svg PUBLIC "-//W3C//DTD SVG 20010904//EN"
 "http://www.w3.org/TR/2001/REC-SVG-20010904/DTD/svg10.dtd">
<svg version="1.0" xmlns="http://www.w3.org/2000/svg"
 width="1220.000000pt" height="1220.000000pt" viewBox="0 0 1220.000000 1220.000000"
 preserveAspectRatio="xMidYMid meet">
<metadata>
Created by potrace 1.11, written by Peter Selinger 2001-2013
</metadata>
<g transform="translate(0.000000,1220.000000) scale(0.100000,-0.100000)"
fill="#000000" stroke="none">
<path d="M0 8690 l0 -3510 274 0 c192 0 277 -3 282 -11 16 -27 22 -79 9 -89
-9 -8 -104 -11 -289 -11 l-276 1 0 -855 0 -855 26 6 c17 4 29 2 35 -7 14 -22
11 -26 -26 -33 l-35 -7 0 -776 c0 -619 3 -773 13 -766 6 6 88 71 182 144 94
74 235 186 315 248 202 158 270 219 270 242 0 13 13 24 41 36 23 9 98 56 167
105 l127 89 -68 -63 c-80 -75 -89 -108 -35 -129 l33 -12 -55 -9 c-185 -32
-138 -2 -633 -398 l-357 -285 0 -438 0 -438 1173 3 c957 2 1176 5 1192 16 44
30 149 182 563 820 311 481 432 674 432 695 0 19 10 36 31 54 45 38 81 90 322
460 239 368 237 364 237 390 0 11 16 34 35 53 20 19 59 68 87 110 52 76 87
120 53 65 -45 -71 -75 -132 -75 -152 0 -12 10 -29 21 -37 21 -15 21 -15 -25
-27 -63 -16 -78 -35 -304 -394 -188 -298 -242 -392 -242 -418 0 -20 31 -45 76
-60 l39 -14 -45 -7 c-143 -22 -148 -24 -189 -79 -58 -78 -696 -1087 -763
-1207 -87 -156 -79 -208 38 -248 45 -15 183 -17 1554 -20 828 -2 1542 0 1588
3 77 6 84 9 93 33 19 50 30 236 49 856 17 533 18 633 7 650 -12 17 -12 26 0
55 10 24 14 59 11 110 l-4 76 -173 280 c-203 327 -229 366 -253 383 -10 7 -18
19 -18 25 0 18 -39 87 -129 232 -45 71 -81 137 -81 146 0 9 7 22 15 29 34 28
58 4 170 -176 61 -96 125 -193 143 -214 17 -21 32 -45 32 -52 0 -17 252 -423
281 -452 10 -11 22 -16 26 -12 13 13 27 427 15 458 -7 20 -6 38 3 65 15 43 31
53 40 23 3 -11 23 -29 42 -39 l36 -18 -39 -19 c-24 -12 -41 -28 -45 -44 -4
-14 -7 -108 -8 -209 l-1 -184 21 19 c49 44 269 381 269 412 0 10 14 31 31 48
33 31 300 452 331 520 10 23 25 47 33 54 12 10 175 268 235 371 8 14 42 67 75
118 33 50 74 113 90 139 28 44 33 47 78 50 28 2 47 -1 47 -7 0 -6 -33 -64 -72
-128 -40 -65 -80 -130 -88 -144 -8 -14 -40 -64 -71 -110 -31 -46 -81 -127
-112 -179 -31 -52 -65 -108 -76 -125 -87 -132 -309 -490 -327 -528 -12 -27
-33 -61 -47 -76 -34 -36 -287 -450 -358 -586 -48 -91 -59 -121 -59 -159 0 -40
5 -52 30 -76 17 -16 52 -33 82 -41 58 -13 50 -21 -34 -33 -26 -4 -57 -15 -69
-25 -22 -18 -22 -23 -30 -397 -11 -533 -13 -881 -4 -938 6 -39 16 -58 50 -91
56 -57 113 -74 275 -86 195 -14 3066 -7 3080 7 15 15 -16 91 -87 219 -86 153
-691 1193 -729 1253 -19 29 -45 58 -59 64 -18 8 -25 19 -25 40 0 39 -26 88
-254 483 -109 188 -210 351 -226 366 -17 14 -30 33 -30 43 0 19 -63 149 -103
213 -36 59 -39 63 -33 63 3 0 30 -42 61 -94 74 -124 114 -169 164 -186 36 -12
56 -30 33 -30 -5 0 -16 -6 -26 -13 -18 -13 -18 -15 -1 -48 38 -72 390 -656
423 -700 41 -56 94 -88 182 -110 60 -15 63 -17 35 -23 -86 -20 -105 -27 -105
-44 0 -23 47 -104 379 -662 318 -532 422 -692 478 -731 69 -48 116 -71 192
-92 75 -21 90 -21 1309 -25 l1232 -3 -1 328 0 328 -482 402 c-541 451 -576
479 -629 495 -23 7 -40 19 -44 32 -4 12 -39 54 -78 95 -71 75 -71 75 -21 39
132 -94 186 -119 305 -142 l65 -13 -45 -12 c-66 -18 -70 -19 -70 -30 0 -13 94
-94 405 -350 149 -122 340 -280 427 -351 86 -72 159 -130 162 -130 3 0 6 790
6 1756 l0 1756 -212 -2 c-356 -3 -622 0 -635 8 -6 4 -14 28 -18 55 l-7 47 436
0 436 0 0 3510 0 3510 -6100 0 -6100 0 0 -3510z m5697 1793 c2 -6 -5 -16 -16
-22 -14 -8 -683 -11 -2245 -11 -1953 0 -2226 -2 -2226 -15 0 -8 9 -29 20 -47
27 -44 25 -64 -6 -85 -27 -17 -27 -17 -58 19 -17 20 -44 61 -61 91 -52 97
-311 87 2293 85 1755 -2 2296 -6 2299 -15z m643 -1173 c239 -22 513 -83 737
-165 149 -55 424 -195 558 -283 161 -107 316 -233 447 -364 147 -147 141 -134
117 -243 -27 -120 -207 -537 -309 -715 -43 -74 -96 -171 -118 -215 -22 -44
-65 -114 -94 -155 l-54 -75 -112 -3 c-88 -2 -114 0 -118 11 -3 8 9 56 25 108
36 111 251 967 251 997 0 32 -45 77 -102 102 -45 19 -64 22 -130 17 -94 -6
-156 -38 -181 -90 -9 -19 -32 -114 -52 -211 -49 -248 -109 -477 -135 -516 -14
-20 -23 -7 -107 144 -81 145 -147 306 -169 406 -13 63 -21 80 -52 108 -55 50
-95 58 -188 38 -119 -26 -199 -54 -221 -79 -11 -12 -56 -128 -101 -257 -81
-236 -167 -468 -176 -477 -9 -9 -26 8 -26 26 0 9 -19 55 -42 101 -38 76 -69
120 -164 237 l-25 32 28 17 c58 36 73 56 73 95 0 70 -131 202 -213 216 -41 6
-163 -19 -251 -52 -412 -156 -774 -458 -902 -754 -32 -72 -54 -100 -54 -68 0
35 -94 198 -160 277 l-70 85 22 17 c78 58 78 59 78 98 0 32 -9 50 -51 100 -60
72 -113 110 -166 117 -83 11 -292 -58 -481 -158 -51 -27 -95 -49 -97 -49 -26
0 64 174 180 350 196 298 472 571 790 782 134 88 409 228 558 283 216 79 498
143 717 164 136 12 406 13 540 1z m3821 -720 l24 -19 -40 -1 c-22 0 -67 -4
-100 -9 -195 -29 -211 -17 -32 24 126 29 120 29 148 5z m-1746 -289 c-6 -5
-36 -11 -68 -14 -50 -5 -57 -4 -46 9 7 9 31 14 67 14 33 0 52 -4 47 -9z m-895
-61 c12 -7 8 -10 -15 -10 -16 0 -55 -3 -85 -7 -51 -6 -54 -5 -41 10 15 19 115
24 141 7z m-1825 -210 c7 -11 -15 -16 -105 -25 -70 -7 -74 -1 -13 20 45 17
109 19 118 5z m-175 -30 c0 -5 -5 -10 -11 -10 -5 0 -7 5 -4 10 3 6 8 10 11 10
2 0 4 -4 4 -10z m-1375 -150 c8 -14 -7 -17 -95 -24 -60 -5 -71 -4 -55 6 41 24
139 36 150 18z m-881 -99 c6 -10 -14 -15 -96 -26 -53 -7 -65 7 -20 23 35 13
109 15 116 3z m2345 -78 c53 -194 53 -196 49 -304 -5 -117 -28 -182 -87 -246
l-30 -33 -307 0 -306 0 6 31 c28 142 353 464 569 565 75 35 94 32 106 -13z
m2814 -28 c-3 -8 -9 -15 -14 -15 -10 0 -12 24 -3 33 11 11 24 -3 17 -18z
m-1826 -132 c15 -32 69 -136 120 -230 52 -95 92 -177 88 -183 -8 -13 -392 -14
-400 0 -5 8 100 352 136 447 14 36 28 27 56 -34z m-2547 -4 c6 -11 15 -41 20
-67 5 -26 16 -72 25 -102 16 -55 17 -213 1 -239 -5 -7 -57 -11 -154 -11 l-147
0 -64 100 c-59 94 -62 102 -48 123 35 53 289 215 339 217 10 0 22 -9 28 -21z
m4950 -66 c0 -18 -41 -73 -54 -73 -23 0 -31 52 -10 67 19 14 64 18 64 6z
m-421 -250 c33 -111 44 -103 -131 -103 -84 0 -159 4 -167 9 -12 8 -11 15 9 44
30 43 69 70 166 112 93 40 92 41 123 -62z m-4921 -20 c18 -31 31 -62 28 -70
-6 -15 -191 -19 -201 -4 -5 9 61 93 93 119 29 22 47 12 80 -45z m4936 -318 c9
-13 16 -41 16 -62 0 -31 6 -43 34 -65 19 -16 42 -28 50 -28 8 0 51 13 95 30
60 22 82 26 88 17 11 -17 16 -456 6 -498 l-9 -34 -182 -3 c-219 -3 -204 12
-176 -183 8 -55 -12 -69 -96 -69 -77 0 -100 6 -100 25 0 8 27 54 60 103 33 48
60 96 60 105 0 15 -21 17 -233 17 -210 0 -236 -2 -250 -18 -9 -9 -34 -58 -57
-107 -60 -130 -53 -125 -185 -125 -177 0 -181 -27 52 346 110 175 223 355 251
399 l52 80 182 -3 c111 -2 194 0 210 7 15 6 39 28 54 51 31 46 55 51 78 15z
m251 -13 c-21 -18 -64 -31 -70 -22 -11 18 6 30 43 30 20 0 32 -4 27 -8z
m-1000 -52 c3 -5 1 -10 -4 -10 -6 0 -11 5 -11 10 0 6 2 10 4 10 3 0 8 -4 11
-10z m-4000 -36 c-94 -79 -280 -129 -384 -104 -57 13 -98 51 -107 98 l-6 32
263 0 264 -1 -30 -25z m734 -49 c105 -151 230 -251 372 -299 105 -34 200 -41
349 -22 200 25 328 69 461 157 48 33 90 59 93 59 3 0 30 -25 60 -56 53 -55 56
-57 93 -49 57 12 124 10 159 -5 38 -16 80 -7 95 22 7 12 13 63 15 112 2 50 7
105 12 121 l8 30 281 3 281 2 7 -42 c6 -33 18 -53 52 -86 42 -41 48 -43 101
-43 31 1 96 -2 143 -5 83 -6 87 -5 105 19 11 13 26 54 33 91 l13 66 169 0
c186 0 174 3 307 -85 50 -33 66 -29 127 32 25 26 45 43 45 38 0 -27 -458 -775
-475 -775 -20 0 -23 19 -12 113 7 66 7 91 -2 100 -16 16 -395 22 -435 7 l-29
-10 7 -73 c4 -39 9 -86 12 -103 8 -45 -15 -64 -80 -64 -28 0 -57 5 -64 12 -9
9 -10 43 -5 123 l6 112 -24 6 c-43 12 -798 8 -821 -4 -19 -10 -20 -16 -12 -97
13 -147 11 -152 -64 -152 -80 0 -82 4 -75 134 l6 113 -24 6 c-42 12 -399 8
-421 -4 -20 -11 -20 -17 -14 -124 6 -99 5 -113 -9 -119 -9 -3 -86 -6 -171 -6
-183 0 -171 -7 -240 140 -34 73 -55 105 -72 111 -32 12 -404 11 -437 -1 l-26
-10 7 -101 c7 -94 6 -101 -11 -98 -20 4 -100 127 -110 169 -4 14 -19 39 -35
55 -15 17 -42 56 -60 87 l-31 57 78 83 c80 85 135 176 168 276 9 28 22 52 30
52 7 0 36 -34 64 -75z m2631 2 c0 -21 -4 -23 -47 -21 -57 2 -106 19 -83 28 8
3 33 7 55 9 22 2 48 4 58 5 12 1 17 -5 17 -21z m-1020 -118 c7 -11 9 -23 7
-26 -9 -8 -68 27 -62 37 11 17 44 11 55 -11z m-610 -48 c0 -9 -103 -53 -155
-66 -80 -19 -271 -33 -330 -24 -113 19 -97 32 60 49 148 17 272 31 340 40 33
4 66 8 73 9 6 0 12 -3 12 -8z m-1540 -177 c0 -12 -116 -56 -198 -75 -102 -23
-299 -29 -347 -10 -43 18 -20 26 105 40 96 10 174 19 350 40 92 12 90 12 90 5z
m149 -53 c11 -11 27 -34 36 -50 14 -28 14 -31 -4 -41 -24 -12 -290 -13 -310
-1 -9 6 16 18 80 40 52 18 110 40 129 51 44 24 46 24 69 1z m-839 -66 c44 -23
44 -23 19 -30 -15 -4 -40 -5 -55 -3 -23 2 -30 9 -32 31 -4 33 8 34 68 2z m141
-81 c4 -21 10 -71 13 -111 6 -65 5 -73 -13 -82 -11 -6 -27 -8 -36 -4 -16 5
-17 18 -10 117 4 61 9 115 12 119 11 18 28 -2 34 -39z m-1746 -57 c66 -31 95
-53 95 -74 0 -18 -1159 -20 -1178 -1 -7 7 -12 34 -12 60 l0 49 518 -3 517 -3
60 -28z m1635 -16 c0 -29 -6 -53 -14 -60 -9 -8 -166 -10 -567 -9 l-554 3 -9
42 c-16 79 -64 73 574 73 l570 0 0 -49z m900 0 c0 -29 -6 -53 -14 -60 -9 -8
-110 -11 -352 -9 l-339 3 -9 42 c-16 78 -39 73 359 73 l355 0 0 -49z m657 4
c44 -78 49 -76 -174 -73 l-198 3 -9 42 c-16 75 -19 74 181 71 l177 -3 23 -40z
m883 1 c0 -78 5 -76 -154 -76 -97 0 -146 4 -154 12 -7 7 -12 34 -12 60 l0 48
160 0 160 0 0 -44z m990 -5 c0 -29 -6 -53 -14 -60 -9 -8 -110 -11 -352 -9
l-339 3 -9 42 c-16 78 -39 73 359 73 l355 0 0 -49z m597 33 c3 -8 2 -34 -3
-57 l-9 -42 -150 0 -150 0 -9 42 c-15 73 -16 73 159 73 132 0 157 -2 162 -16z
m923 7 c0 -5 -15 -31 -32 -57 l-33 -49 -152 -3 c-173 -3 -171 -4 -131 74 l22
44 163 0 c90 0 163 -4 163 -9z m558 -48 l-3 -58 -145 -3 c-127 -2 -146 -1
-157 15 -14 18 -18 85 -6 96 3 4 76 7 160 7 l154 0 -3 -57z m932 49 c0 -4 -16
-31 -35 -60 l-36 -52 -149 0 c-82 0 -151 4 -154 8 -3 5 6 32 19 60 l24 52 166
0 c91 0 165 -3 165 -8z m1057 -22 c6 -14 13 -38 15 -55 l3 -30 -225 0 -225 0
2 23 c2 12 9 38 17 57 l15 35 193 -2 193 -3 12 -25z m-8727 -61 c0 -14 -26
-10 -39 5 -9 11 -9 15 1 19 14 5 38 -10 38 -24z m2230 -38 c16 -31 12 -41 -15
-41 -20 0 -25 5 -25 23 0 40 22 50 40 18z m3270 -346 c0 -44 -32 -65 -99 -65
-62 0 -86 14 -79 47 3 15 17 19 76 25 41 3 76 9 79 12 13 13 23 5 23 -19z
m-3955 -27 c9 -38 7 -232 -3 -423 l-7 -140 -250 -5 c-284 -6 -790 2 -800 12
-4 3 -3 26 2 50 l9 43 351 5 c316 5 353 7 370 23 25 22 49 22 80 -3 16 -12 41
-20 64 -20 35 0 39 3 39 25 0 13 -19 71 -41 127 -61 152 -119 320 -113 330 3
4 70 8 149 8 l143 0 7 -32z m791 20 c12 -19 6 -546 -6 -569 -10 -17 -23 -19
-165 -19 -84 0 -156 4 -159 9 -9 14 -12 565 -3 579 11 17 323 17 333 0z m939
2 c3 -5 9 -63 12 -128 7 -135 -2 -157 -44 -106 -28 35 -122 226 -116 237 6 11
141 9 148 -3z m799 -52 c11 -91 -4 -521 -18 -530 -6 -4 -35 -8 -64 -8 -29 0
-63 -5 -74 -11 -14 -8 -23 -8 -31 0 -6 6 -34 11 -62 11 -88 0 -85 -13 -87 300
-2 151 1 281 5 288 6 9 51 12 166 12 l158 0 7 -62z m791 41 c11 -35 8 -318 -5
-394 -11 -68 -33 -118 -73 -162 -19 -21 -29 -23 -123 -23 -80 0 -106 3 -118
16 -13 13 -16 46 -18 182 -3 184 1 383 9 395 2 4 76 7 163 7 153 0 159 -1 165
-21z m1489 4 c13 -46 5 -551 -10 -574 -3 -5 -68 -9 -144 -9 -157 0 -154 -1
-196 82 -14 28 -52 95 -85 150 -33 55 -59 112 -59 127 0 16 27 68 70 134 l71
107 174 0 c157 0 174 -2 179 -17z m-7514 -213 l0 -50 245 0 c277 0 301 5 336
65 l21 35 182 -2 181 -3 -2 -36 c-3 -57 -41 -143 -83 -192 -75 -84 -53 -82
-662 -85 -512 -3 -537 -2 -547 15 -11 21 -31 188 -31 258 l0 45 180 0 180 0 0
-50z m2232 -25 c-1 -38 -5 -80 -7 -92 l-5 -23 -313 0 c-321 0 -337 -2 -337
-39 0 -9 -5 -33 -11 -53 l-10 -38 -144 0 -144 0 -10 38 c-14 54 -34 260 -26
272 4 7 169 9 508 8 l502 -3 -3 -70z m880 64 c7 -20 -21 -268 -32 -289 -10
-19 -21 -20 -151 -20 -136 0 -140 1 -148 23 -9 24 -31 207 -31 262 l0 35 179
0 c126 0 180 -3 183 -11z m793 1 c8 -13 -12 -219 -26 -272 l-10 -38 -144 0
-144 0 -10 38 c-14 53 -34 259 -26 272 8 14 352 14 360 0z m483 -124 c33 -73
62 -144 64 -157 l3 -24 -123 -3 -123 -3 -26 30 c-49 55 -183 256 -183 274 0
15 14 17 164 17 l164 0 60 -134z m464 123 c6 -19 -21 -262 -32 -286 -9 -22
-14 -23 -150 -23 -139 0 -141 0 -150 24 -10 27 -30 195 -30 256 l0 40 179 0
c124 0 180 -3 183 -11z m790 0 c7 -20 -21 -268 -32 -289 -10 -19 -21 -20 -151
-20 -136 0 -140 1 -148 23 -9 24 -31 207 -31 262 l0 35 179 0 c126 0 180 -3
183 -11z m1342 2 c3 -4 0 -22 -6 -38 -10 -27 -7 -42 30 -131 63 -151 69 -142
-103 -142 l-144 0 -28 37 c-71 93 -70 93 -185 93 -105 0 -128 -7 -128 -39 0
-9 -5 -33 -11 -53 l-10 -38 -144 0 -144 0 -10 38 c-14 53 -34 259 -26 272 8
12 901 14 909 1z m1491 -1 c4 -6 -1 -22 -9 -35 -16 -24 -15 -29 24 -120 22
-52 43 -109 47 -125 l6 -30 -146 0 -146 0 -33 41 c-74 93 -66 89 -177 89 -55
0 -106 -3 -115 -6 -9 -3 -18 -25 -22 -52 -3 -26 -11 -53 -16 -59 -8 -9 -50
-13 -149 -13 -135 0 -140 1 -148 23 -9 24 -31 207 -31 262 l0 35 454 0 c305 0
457 -3 461 -10z m1101 -4 c5 -14 -89 -233 -121 -282 -15 -24 -18 -24 -165 -24
l-150 0 0 33 c0 17 12 73 25 122 14 50 30 107 36 128 l10 37 180 0 c145 0 181
-3 185 -14z m593 -53 c32 -108 61 -235 55 -245 -3 -4 -72 -8 -153 -8 -113 0
-151 3 -160 14 -22 26 -131 280 -127 293 4 10 48 13 185 13 l180 0 20 -67z
m-6143 -100 c31 -60 72 -133 90 -164 41 -68 42 -82 8 -98 -22 -10 -31 -9 -56
6 -44 26 -97 118 -108 188 -13 76 -13 175 -1 175 6 0 36 -48 67 -107z m2600
-91 c19 -12 86 -141 79 -152 -3 -5 -42 -10 -85 -10 -73 0 -81 -2 -104 -27 -14
-15 -29 -24 -33 -20 -10 11 -3 178 8 199 8 14 22 18 67 18 31 0 62 -4 68 -8z
m-5464 -97 c14 -67 18 -66 -179 -63 -155 3 -178 5 -181 19 -2 11 7 20 27 27
17 6 47 22 68 37 36 24 44 25 148 23 l109 -3 8 -40z m6979 23 c34 -37 51 -66
44 -78 -4 -6 -47 -10 -106 -10 l-99 0 0 29 c0 16 4 41 10 55 9 24 14 26 69 26
49 0 64 -4 82 -22z m875 -25 c-3 -26 -11 -52 -16 -57 -10 -10 -259 -11 -290
-1 -15 5 -40 63 -40 94 0 8 52 11 176 11 l177 0 -7 -47z m-5367 -825 c-24 -20
-39 -23 -39 -7 0 19 44 49 52 36 5 -7 -1 -19 -13 -29z m2833 -10 c-14 -14 -52
12 -52 35 0 17 2 17 31 -4 19 -14 27 -25 21 -31z m-1419 28 c5 -14 -10 -36
-25 -36 -4 0 -8 11 -8 25 0 27 24 35 33 11z m2835 -25 c5 -15 -18 -5 -53 24
-19 14 -18 15 14 2 19 -7 37 -19 39 -26z m-5643 20 c-6 -5 -21 -12 -35 -16
-24 -7 -24 -7 -5 9 21 16 56 23 40 7z m1167 -398 c7 -9 2 -16 -18 -24 -16 -6
-37 -18 -46 -26 -17 -15 -18 -14 -18 6 0 28 63 95 69 72 2 -9 8 -22 13 -28z
m1649 -3 c6 0 -1 -14 -15 -31 -24 -28 -26 -38 -28 -137 l-1 -107 -7 140 c-4
80 -3 151 2 165 l10 25 14 -27 c8 -16 19 -28 25 -28z m1661 -2 c7 -3 6 -12 -4
-31 l-14 -27 -26 27 c-14 16 -28 40 -32 55 l-6 28 35 -24 c20 -14 41 -26 47
-28z m1677 -14 c3 -2 0 -9 -6 -15 -8 -8 -23 -5 -54 12 -64 36 -62 54 3 28 29
-11 55 -23 57 -25z m-6639 22 c0 -8 -21 -21 -47 -30 -55 -19 -53 -19 -53 -6 0
10 67 49 88 50 6 0 12 -6 12 -14z m-1644 -5 c-3 -5 -23 -12 -43 -15 -21 -4
-47 -9 -58 -12 -11 -2 -2 5 20 15 42 20 90 27 81 12z m9931 -12 c14 -5 23 -12
20 -16 -7 -6 -117 25 -117 34 0 7 64 -5 97 -18z m-8984 -529 c-3 -11 0 -26 6
-34 10 -12 3 -16 -39 -25 -28 -6 -64 -18 -80 -26 -28 -15 -30 -14 -30 4 0 13
21 31 73 60 39 22 73 40 74 41 0 0 -1 -9 -4 -20z m8024 -35 c38 -8 51 -22 29
-31 -9 -3 -16 -12 -16 -19 0 -10 -16 -6 -54 13 -46 23 -63 40 -84 85 -2 5 18
-3 44 -16 27 -14 64 -28 81 -32z m1991 3 c74 -19 81 -23 68 -36 -14 -14 -21
-14 -73 2 -72 23 -86 29 -91 44 -5 16 0 16 96 -10z m-1267 -655 c13 -16 12
-17 -3 -4 -10 7 -18 15 -18 17 0 8 8 3 21 -13z m60 -50 c13 -16 12 -17 -3 -4
-10 7 -18 15 -18 17 0 8 8 3 21 -13z"/>
<path d="M0 425 l0 -425 913 2 912 3 240 372 c133 204 250 388 260 408 38 69
115 65 -1172 65 l-1153 0 0 -425z"/>
<path d="M2670 843 c-104 -5 -223 -23 -247 -39 -33 -21 -125 -156 -340 -494
l-193 -305 1992 -3 c1095 -1 1993 0 1996 2 5 6 19 378 24 643 2 131 0 175 -10
185 -11 11 -307 13 -1585 14 -865 0 -1601 -1 -1637 -3z"/>
<path d="M6183 839 c-114 -8 -188 -22 -198 -38 -12 -20 -24 -222 -30 -503 l-6
-298 2000 0 1999 0 -135 233 c-236 405 -344 585 -360 599 -13 11 -305 13
-1587 14 -864 1 -1621 -2 -1683 -7z"/>
<path d="M9732 839 c-115 -9 -172 -24 -172 -45 0 -22 64 -138 269 -481 l185
-313 1093 0 1093 0 0 425 0 425 -1182 -1 c-651 -1 -1229 -5 -1286 -10z"/>
</g>
</svg>
